<?xml version="1.0" encoding="UTF-8"?>
<svg version="1.1" xmlns="http://www.w3.org/2000/svg" width="512" height="512">
<path d="M0 0 C0.6886783 -0.00265183 1.37735659 -0.00530365 2.08690393 -0.00803584 C4.4056911 -0.01572462 6.72442527 -0.01628785 9.04322433 -0.01688576 C10.71819306 -0.02090069 12.39316081 -0.02533897 14.06812739 -0.03016531 C18.68004159 -0.04213382 23.29194533 -0.04777994 27.90387201 -0.05234647 C32.87484963 -0.05830174 37.84581473 -0.069912 42.81678391 -0.08063698 C54.82864462 -0.10516619 66.84050949 -0.11979069 78.85238755 -0.13269705 C82.24599905 -0.13640917 85.63961015 -0.14038241 89.03322124 -0.14444971 C110.11211934 -0.16969093 131.1910181 -0.19174173 152.26992798 -0.20417786 C157.15324277 -0.20710752 162.03655754 -0.21006918 166.91987228 -0.21308327 C168.13358414 -0.21382932 169.34729599 -0.21457537 170.59778699 -0.21534403 C190.24500842 -0.22798885 209.89213917 -0.26119948 229.53931823 -0.3028851 C249.71702415 -0.34534473 269.89468372 -0.36887772 290.07243419 -0.37409842 C301.39877069 -0.3775084 312.72496561 -0.38921462 324.05125809 -0.42220116 C333.7008564 -0.45025844 343.35028411 -0.46117618 352.99992004 -0.4500057 C357.91941371 -0.44483321 362.83855041 -0.44761374 367.75799179 -0.47247124 C372.2714339 -0.49508572 376.78426516 -0.49413001 381.29771885 -0.47526737 C382.92103108 -0.47248431 384.54438582 -0.47797039 386.16763011 -0.4930803 C405.80819551 -0.66456235 421.3792 5.14177897 435.89936447 18.76592064 C449.61956272 33.02646916 453.48824249 49.40918497 453.44804001 68.5008297 C453.45177882 70.18138976 453.45638126 71.86194808 453.46177065 73.54250365 C453.4739876 78.15119301 453.47374172 82.75980971 453.4713819 87.36851156 C453.4709734 92.34277421 453.48201607 97.31701367 453.49149704 102.29126549 C453.50810108 112.03355533 453.51360633 121.77582096 453.5147218 131.51812377 C453.51567259 139.43878279 453.51978448 147.35943383 453.52612305 155.28009033 C453.54373418 177.74468716 453.55296217 200.20926489 453.5514621 222.67386868 C453.55134223 224.49000203 453.55134223 224.49000203 453.55121994 226.34282494 C453.55113818 227.55506172 453.55105642 228.76729849 453.55097218 230.01626972 C453.55015941 249.65878564 453.56929502 269.30122484 453.59749667 288.94371857 C453.62623631 309.1204115 453.64003636 329.29706702 453.63830912 349.47378093 C453.63764557 360.79825665 453.64312246 372.12265196 453.66466522 383.44710922 C453.68289124 393.08973413 453.68721267 402.73224219 453.67364638 412.37487688 C453.66712382 417.2919468 453.66697381 422.20879264 453.68435287 427.12584114 C453.70012017 431.6333525 453.69718273 436.14046278 453.67978461 440.64796457 C453.67672275 442.27244309 453.68031622 443.89695182 453.69150476 445.52139469 C453.80935879 463.85713942 448.72903042 479.48544099 436.18061447 493.13701439 C434.08715562 494.99867157 431.97584213 496.77234989 429.74702072 498.46904564 C427.75489642 500.59033511 427.52349717 502.2925368 427.18061447 505.13701439 C425.88123947 505.21951439 424.58186447 505.30201439 423.24311447 505.38701439 C418.89919929 505.85607565 415.56711554 507.09009022 411.71186447 509.10185814 C402.6767355 512.79677971 393.34428337 512.42223045 383.76574326 512.3977108 C382.09185739 512.40073387 380.41797291 512.40462414 378.74409086 512.40930337 C374.15852948 512.41957205 369.57304638 512.41740441 364.98747861 512.41312277 C360.03643222 512.41065349 355.08540458 512.41967225 350.13436508 512.42716026 C340.44000323 512.43990383 330.74566907 512.44170136 321.05130025 512.43936 C313.17022596 512.43757623 305.28916007 512.43932774 297.40808678 512.44358444 C296.2859742 512.44417963 295.16386162 512.44477482 294.00774563 512.44538805 C291.72808621 512.44659981 289.44842679 512.44781395 287.16876737 512.44903042 C265.79401459 512.45990473 244.4192776 512.45774403 223.04452393 512.45164558 C203.49840699 512.446477 183.95233988 512.4577305 164.4062328 512.47674379 C144.32782487 512.49612488 124.24944053 512.50437769 104.17102319 512.50062054 C92.90194293 512.49870885 81.6329051 512.50119295 70.36383247 512.51533508 C60.76989145 512.52725331 51.17601896 512.52864881 41.58207699 512.51654492 C36.68946448 512.51065926 31.7969773 512.50954818 26.90437317 512.52154732 C22.42044944 512.53241614 17.93675553 512.52929085 13.45284251 512.51528563 C11.83581597 512.51264146 10.21877135 512.51499642 8.60176256 512.5230215 C-1.51866647 512.56973878 -11.69685623 512.45338443 -20.81938553 507.51201439 C-25.59013971 505.32541872 -30.62685698 505.38067673 -35.81938553 505.13701439 C-35.81938553 504.14701439 -35.81938553 503.15701439 -35.81938553 502.13701439 C-36.47129497 497.48051837 -39.30954596 495.44064898 -42.62797928 492.35967064 C-55.93358707 478.86432156 -59.12485725 461.84084339 -59.08681107 443.77319908 C-59.09054988 442.09263902 -59.09515232 440.4120807 -59.10054171 438.73152512 C-59.11275866 434.12283577 -59.11251278 429.51421907 -59.11015296 424.90551722 C-59.10974446 419.93125457 -59.12078713 414.95701511 -59.1302681 409.98276329 C-59.14687214 400.24047345 -59.15237738 390.49820782 -59.15349285 380.75590501 C-59.15444365 372.83524599 -59.15855554 364.91459494 -59.1648941 356.99393845 C-59.18250523 334.52934161 -59.19173323 312.06476388 -59.19023316 289.6001601 C-59.19015324 288.38940453 -59.19007333 287.17864897 -59.189991 285.93120384 C-59.18990924 284.71896706 -59.18982747 283.50673028 -59.18974324 282.25775906 C-59.18893047 262.61524314 -59.20806608 242.97280393 -59.23626773 223.3303102 C-59.26500737 203.15361728 -59.27880741 182.97696176 -59.27708018 162.80024785 C-59.27641663 151.47577213 -59.28189351 140.15137682 -59.30343628 128.82691956 C-59.3216623 119.18429465 -59.32598373 109.54178659 -59.31241743 99.8991519 C-59.30589488 94.98208197 -59.30574487 90.06523614 -59.32312393 85.14818764 C-59.33889122 80.64067628 -59.33595379 76.133566 -59.31855567 71.6260642 C-59.3154938 70.00158569 -59.31908728 68.37707696 -59.33027582 66.75263409 C-59.45659936 47.09920152 -53.45019515 31.13061991 -39.69047928 16.94170189 C-29.12570493 7.00060832 -14.6178972 0.02771614 0 0 Z " fill="#FDEF89" transform="translate(58.81938552856445,-0.13701438903808594)"/>
<path d="M0 0 C0.6886783 -0.00265183 1.37735659 -0.00530365 2.08690393 -0.00803584 C4.4056911 -0.01572462 6.72442527 -0.01628785 9.04322433 -0.01688576 C10.71819306 -0.02090069 12.39316081 -0.02533897 14.06812739 -0.03016531 C18.68004159 -0.04213382 23.29194533 -0.04777994 27.90387201 -0.05234647 C32.87484963 -0.05830174 37.84581473 -0.069912 42.81678391 -0.08063698 C54.82864462 -0.10516619 66.84050949 -0.11979069 78.85238755 -0.13269705 C82.24599905 -0.13640917 85.63961015 -0.14038241 89.03322124 -0.14444971 C110.11211934 -0.16969093 131.1910181 -0.19174173 152.26992798 -0.20417786 C157.15324277 -0.20710752 162.03655754 -0.21006918 166.91987228 -0.21308327 C168.13358414 -0.21382932 169.34729599 -0.21457537 170.59778699 -0.21534403 C190.24500842 -0.22798885 209.89213917 -0.26119948 229.53931823 -0.3028851 C249.71702415 -0.34534473 269.89468372 -0.36887772 290.07243419 -0.37409842 C301.39877069 -0.3775084 312.72496561 -0.38921462 324.05125809 -0.42220116 C333.7008564 -0.45025844 343.35028411 -0.46117618 352.99992004 -0.4500057 C357.91941371 -0.44483321 362.83855041 -0.44761374 367.75799179 -0.47247124 C372.2714339 -0.49508572 376.78426516 -0.49413001 381.29771885 -0.47526737 C382.92103108 -0.47248431 384.54438582 -0.47797039 386.16763011 -0.4930803 C405.80819551 -0.66456235 421.3792 5.14177897 435.89936447 18.76592064 C449.61956272 33.02646916 453.48824249 49.40918497 453.44804001 68.5008297 C453.45177882 70.18138976 453.45638126 71.86194808 453.46177065 73.54250365 C453.4739876 78.15119301 453.47374172 82.75980971 453.4713819 87.36851156 C453.4709734 92.34277421 453.48201607 97.31701367 453.49149704 102.29126549 C453.50810108 112.03355533 453.51360633 121.77582096 453.5147218 131.51812377 C453.51567259 139.43878279 453.51978448 147.35943383 453.52612305 155.28009033 C453.54373418 177.74468716 453.55296217 200.20926489 453.5514621 222.67386868 C453.55134223 224.49000203 453.55134223 224.49000203 453.55121994 226.34282494 C453.55113818 227.55506172 453.55105642 228.76729849 453.55097218 230.01626972 C453.55015941 249.65878564 453.56929502 269.30122484 453.59749667 288.94371857 C453.62623631 309.1204115 453.64003636 329.29706702 453.63830912 349.47378093 C453.63764557 360.79825665 453.64312246 372.12265196 453.66466522 383.44710922 C453.68289124 393.08973413 453.68721267 402.73224219 453.67364638 412.37487688 C453.66712382 417.2919468 453.66697381 422.20879264 453.68435287 427.12584114 C453.70012017 431.6333525 453.69718273 436.14046278 453.67978461 440.64796457 C453.67672275 442.27244309 453.68031622 443.89695182 453.69150476 445.52139469 C453.80935879 463.85713942 448.72903042 479.48544099 436.18061447 493.13701439 C434.08715562 494.99867157 431.97584213 496.77234989 429.74702072 498.46904564 C427.75489642 500.59033511 427.52349717 502.2925368 427.18061447 505.13701439 C425.88123947 505.21951439 424.58186447 505.30201439 423.24311447 505.38701439 C418.89919929 505.85607565 415.56711554 507.09009022 411.71186447 509.10185814 C402.6767355 512.79677971 393.34428337 512.42223045 383.76574326 512.3977108 C382.09185739 512.40073387 380.41797291 512.40462414 378.74409086 512.40930337 C374.15852948 512.41957205 369.57304638 512.41740441 364.98747861 512.41312277 C360.03643222 512.41065349 355.08540458 512.41967225 350.13436508 512.42716026 C340.44000323 512.43990383 330.74566907 512.44170136 321.05130025 512.43936 C313.17022596 512.43757623 305.28916007 512.43932774 297.40808678 512.44358444 C296.2859742 512.44417963 295.16386162 512.44477482 294.00774563 512.44538805 C291.72808621 512.44659981 289.44842679 512.44781395 287.16876737 512.44903042 C265.79401459 512.45990473 244.4192776 512.45774403 223.04452393 512.45164558 C203.49840699 512.446477 183.95233988 512.4577305 164.4062328 512.47674379 C144.32782487 512.49612488 124.24944053 512.50437769 104.17102319 512.50062054 C92.90194293 512.49870885 81.6329051 512.50119295 70.36383247 512.51533508 C60.76989145 512.52725331 51.17601896 512.52864881 41.58207699 512.51654492 C36.68946448 512.51065926 31.7969773 512.50954818 26.90437317 512.52154732 C22.42044944 512.53241614 17.93675553 512.52929085 13.45284251 512.51528563 C11.83581597 512.51264146 10.21877135 512.51499642 8.60176256 512.5230215 C-1.51866647 512.56973878 -11.69685623 512.45338443 -20.81938553 507.51201439 C-25.59013971 505.32541872 -30.62685698 505.38067673 -35.81938553 505.13701439 C-35.81938553 504.14701439 -35.81938553 503.15701439 -35.81938553 502.13701439 C-36.47129497 497.48051837 -39.30954596 495.44064898 -42.62797928 492.35967064 C-55.93358707 478.86432156 -59.12485725 461.84084339 -59.08681107 443.77319908 C-59.09054988 442.09263902 -59.09515232 440.4120807 -59.10054171 438.73152512 C-59.11275866 434.12283577 -59.11251278 429.51421907 -59.11015296 424.90551722 C-59.10974446 419.93125457 -59.12078713 414.95701511 -59.1302681 409.98276329 C-59.14687214 400.24047345 -59.15237738 390.49820782 -59.15349285 380.75590501 C-59.15444365 372.83524599 -59.15855554 364.91459494 -59.1648941 356.99393845 C-59.18250523 334.52934161 -59.19173323 312.06476388 -59.19023316 289.6001601 C-59.19015324 288.38940453 -59.19007333 287.17864897 -59.189991 285.93120384 C-59.18990924 284.71896706 -59.18982747 283.50673028 -59.18974324 282.25775906 C-59.18893047 262.61524314 -59.20806608 242.97280393 -59.23626773 223.3303102 C-59.26500737 203.15361728 -59.27880741 182.97696176 -59.27708018 162.80024785 C-59.27641663 151.47577213 -59.28189351 140.15137682 -59.30343628 128.82691956 C-59.3216623 119.18429465 -59.32598373 109.54178659 -59.31241743 99.8991519 C-59.30589488 94.98208197 -59.30574487 90.06523614 -59.32312393 85.14818764 C-59.33889122 80.64067628 -59.33595379 76.133566 -59.31855567 71.6260642 C-59.3154938 70.00158569 -59.31908728 68.37707696 -59.33027582 66.75263409 C-59.45659936 47.09920152 -53.45019515 31.13061991 -39.69047928 16.94170189 C-29.12570493 7.00060832 -14.6178972 0.02771614 0 0 Z M3.86811447 75.76201439 C3.37698166 76.35240501 2.88584885 76.94279564 2.37983322 77.55107689 C-0.04167787 80.75346614 0.05455143 83.00751508 0.05198002 86.97577953 C0.04875557 88.22721715 0.04553113 89.47865476 0.04220897 90.76801473 C0.04368034 92.16964529 0.04524808 93.57127575 0.0469017 94.97290611 C0.04503504 96.45187268 0.04273493 97.93083876 0.04003638 99.40980405 C0.03389391 103.48880288 0.03405484 107.5677813 0.03523076 111.64678371 C0.03543415 116.04020817 0.02992186 120.43362596 0.02517319 124.82704735 C0.01685246 133.44049993 0.0141177 142.05394568 0.01356081 150.66740195 C0.01308628 157.6667412 0.0110347 164.66607818 0.00786018 171.66541672 C-0.0009506 191.49444595 -0.00555858 211.32346976 -0.00480934 231.15250096 C-0.00476939 232.22238795 -0.00472943 233.29227494 -0.00468826 234.39458275 C-0.00464738 235.4657709 -0.0046065 236.53695904 -0.00456438 237.64060744 C-0.00415789 255.00296858 -0.01372723 272.36530803 -0.02782663 289.7276629 C-0.0421778 307.54013738 -0.04909749 325.35260127 -0.04823285 343.16508168 C-0.04790043 353.17144987 -0.05066739 363.17779533 -0.0614109 373.18415833 C-0.07049942 381.70394529 -0.07270481 390.22369924 -0.06590148 398.74348895 C-0.06262779 403.09239263 -0.06261005 407.44123289 -0.07125473 411.79013062 C-0.07908341 415.76937749 -0.07772572 419.74851028 -0.0689706 423.72775426 C-0.06742755 425.16922797 -0.06928186 426.61071004 -0.07483067 428.05217389 C-0.08186353 430.00834645 -0.0754184 431.96455367 -0.0682745 433.92072582 C-0.06849187 435.00829986 -0.06870923 436.09587391 -0.06893319 437.21640474 C0.18791262 440.22242906 0.91188799 442.41579116 2.18061447 445.13701439 C2.84061447 445.13701439 3.50061447 445.13701439 4.18061447 445.13701439 C4.52092697 446.00326439 4.52092697 446.00326439 4.86811447 446.88701439 C6.84690984 450.27923502 9.69048389 452.3919491 13.18061447 454.13701439 C15.13722472 454.23371012 17.09720324 454.26438773 19.05620098 454.26564884 C20.31583878 454.26887329 21.57547659 454.27209773 22.87328523 454.27541989 C24.28415432 454.27394852 25.6950233 454.27238079 27.10589218 454.27072716 C28.59453373 454.2725938 30.0831748 454.27489392 31.57181507 454.27759248 C35.67747825 454.28373498 39.78312114 454.28357402 43.88878787 454.2823981 C48.31080418 454.28219471 52.73281386 454.28770692 57.15482712 454.29245567 C65.82375665 454.30077607 74.49267938 454.30351114 83.16161256 454.30406805 C90.20482865 454.30454253 97.24804248 454.30659387 104.29125786 454.30976868 C124.24109346 454.31857886 144.19092368 454.32318746 164.14076125 454.3224382 C165.75534089 454.32237827 165.75534089 454.32237827 167.4025383 454.32231712 C168.4802323 454.32227624 169.5579263 454.32223536 170.66827769 454.32219324 C188.14192084 454.32178661 205.61554247 454.33135941 223.08917939 454.34545549 C241.01238541 454.35980066 258.93558093 454.36672671 276.85879284 454.36586171 C286.92881336 454.36552911 296.99881131 454.36830382 307.06882668 454.37903976 C315.6413716 454.38812034 324.21388372 454.39034021 332.78643136 454.38353034 C337.16344083 454.38025279 341.54038726 454.38025268 345.91739082 454.38888359 C349.91997157 454.39669529 353.92243874 454.39537231 357.92501653 454.38659946 C359.37722174 454.38505262 360.8294352 454.38692465 362.28163069 454.39245953 C364.24747149 454.39945909 366.21334661 454.39306559 368.17918682 454.38590336 C369.27359583 454.38612073 370.36800484 454.38633809 371.49557775 454.38656205 C374.40500874 454.33070551 374.40500874 454.33070551 377.18061447 452.13701439 C377.18061447 451.47701439 377.18061447 450.81701439 377.18061447 450.13701439 C377.81998947 449.86888939 378.45936447 449.60076439 379.11811447 449.32451439 C381.51193133 448.25033687 381.51193133 448.25033687 382.18061447 445.13701439 C382.84061447 445.13701439 383.50061447 445.13701439 384.18061447 445.13701439 C385.98905825 441.25483228 386.43234319 438.20016512 386.43788338 433.93189907 C386.44755672 432.04670798 386.44755672 432.04670798 386.45742548 430.12343222 C386.45448329 428.73131715 386.45134786 427.33920249 386.44804001 425.94708824 C386.45177657 424.46624343 386.45637812 422.98540059 386.46177065 421.50456089 C386.47401506 417.43425371 386.4737385 413.36402865 386.4713819 409.29370725 C386.47097411 404.90439673 386.48200923 400.51511266 386.49149704 396.12581444 C386.50811524 387.52647134 386.51360693 378.92715565 386.5147218 370.32779784 C386.51567176 363.33950087 386.51977944 356.35121296 386.52612305 349.36291885 C386.54373667 329.55667628 386.55296157 309.75045539 386.5514621 289.94420493 C386.55138219 288.87627688 386.55130227 287.80834882 386.55121994 286.70805931 C386.5510973 285.10421531 386.5510973 285.10421531 386.55097218 283.46797042 C386.55015895 266.13231369 386.56930558 248.79674377 386.59749667 231.46111215 C386.62620425 213.66774342 386.64003818 195.87441707 386.63830912 178.08102459 C386.63764455 168.08861401 386.64316647 158.09629447 386.66466522 148.10390472 C386.68284893 139.59772991 386.68724744 131.09168742 386.67364638 122.58550162 C386.66710285 118.2444847 386.66704928 113.90372185 386.68435287 109.56272888 C386.7000275 105.58960036 386.69727791 101.61692857 386.67978461 97.64381158 C386.67670231 96.20577296 386.68039327 94.76770072 386.69150476 93.32970173 C387.00073278 83.35905221 387.00073278 83.35905221 382.18061447 75.13701439 C377.07331776 70.55354298 372.94873798 67.76330935 365.97549915 67.75669765 C364.71870509 67.74825771 363.46191103 67.73981777 362.1670323 67.73112208 C360.77491647 67.73691715 359.3828018 67.74299818 357.99068832 67.74933434 C356.50984176 67.74516169 355.02899839 67.73968455 353.54816097 67.73301452 C349.47781282 67.71853208 345.40766667 67.72281332 341.33730733 67.73018134 C336.94799027 67.7349038 332.55871748 67.72241135 328.16941452 67.71216393 C319.57005557 67.69495255 310.97076962 67.69414074 302.37139792 67.69937683 C295.38309738 67.70341536 288.39481844 67.70197875 281.40651894 67.69662857 C280.41257404 67.69588015 279.41862914 67.69513173 278.3945647 67.69436062 C276.37548375 67.69282918 274.35640281 67.69129083 272.33732187 67.68974566 C253.39539068 67.67601219 234.45350076 67.68146429 215.51157051 67.69293087 C198.17591002 67.70286451 180.84035625 67.6899218 163.50471223 67.66599668 C145.71133858 67.64162453 127.91801468 67.63199314 110.12462467 67.6386494 C100.13221982 67.64214577 90.13989706 67.63988204 80.14750481 67.62239838 C71.64132287 67.60769997 63.13528083 67.60700999 54.6291017 67.62446929 C50.28808979 67.63300111 45.94732805 67.63507582 41.60632896 67.61981773 C37.63319216 67.60602536 33.66052114 67.61066296 29.68741166 67.63005697 C28.24937643 67.63383412 26.81130439 67.6308458 25.37330181 67.62044532 C15.62527898 67.55494993 10.22059117 67.98836366 3.86811447 75.76201439 Z " fill="#8A6E46" transform="translate(58.81938552856445,-0.13701438903808594)"/>
<path d="M0 0 C7.86380206 6.61274264 13.41647154 14.30433579 18.375 23.2421875 C18.86484375 24.12132812 19.3546875 25.00046875 19.859375 25.90625 C22.64205267 31.45442832 24.40355501 37.28180034 26.0625 43.2421875 C26.26520508 43.94625732 26.46791016 44.65032715 26.67675781 45.37573242 C31.88833281 65.34546115 30.71805179 86.65866016 30.74244571 107.12038565 C30.74612018 109.8162692 30.75237476 112.51213497 30.7594471 115.20801163 C30.78379509 124.62842863 30.7969679 134.04879143 30.80053711 143.46923828 C30.80419275 152.23279622 30.8342694 160.99600843 30.87594169 169.75946033 C30.9105999 177.31401127 30.92608452 184.86844682 30.92678314 192.42307675 C30.92757547 196.92291283 30.93629942 201.42239249 30.96478081 205.92214584 C30.99089501 210.13976304 30.99320453 214.35672566 30.97712517 218.5743866 C30.97530718 220.12037202 30.98203304 221.66639473 30.99794388 223.21229935 C31.01834827 225.32320933 31.00789195 227.43181408 30.98973083 229.54269409 C30.99174216 230.72279997 30.99375349 231.90290585 30.99582577 233.11877251 C30.18997201 237.17307539 28.51186699 238.64299944 25.375 241.2421875 C17.4656726 245.51749961 7.00980692 244.45918241 -1.72338867 244.48242188 C-3.92209844 244.49211957 -6.1198682 244.52321374 -8.31835938 244.5546875 C-27.3020287 244.70155894 -27.3020287 244.70155894 -33.73196316 239.55613232 C-36.16406713 236.58326129 -36.12453274 234.991691 -36.12379456 231.1809845 C-36.13337189 229.93793045 -36.14294922 228.6948764 -36.15281677 227.41415405 C-36.14331876 226.03887698 -36.13346484 224.66360232 -36.12329102 223.28833008 C-36.12711499 221.83750349 -36.13273471 220.38668068 -36.14001465 218.93586731 C-36.1519724 215.81029767 -36.15146971 212.68506393 -36.14142036 209.5594883 C-36.12583383 204.60184843 -36.13956022 199.64455163 -36.15745544 194.68693542 C-36.18829861 185.03733969 -36.18977869 175.38784849 -36.18780518 165.73821259 C-36.18641381 153.50341238 -36.19704821 141.26869494 -36.2363829 129.03395385 C-36.24877861 124.92147899 -36.25460273 120.80921241 -36.24487495 116.69672585 C-35.15190417 80.90120774 -35.15190417 80.90120774 -51.296875 50.3046875 C-54.51482483 47.4538863 -57.57195112 45.63643632 -61.625 44.2421875 C-62.24890625 44.02046875 -62.8728125 43.79875 -63.515625 43.5703125 C-74.9154139 40.14110771 -85.60188988 42.58782346 -96 47.7421875 C-102.75137767 51.5851327 -108.13165632 56.83449887 -113.625 62.2421875 C-114.92050781 63.49708984 -114.92050781 63.49708984 -116.2421875 64.77734375 C-118.40729509 66.90340842 -120.55158744 69.02664585 -122.625 71.2421875 C-123.31495088 71.97289963 -124.00490175 72.70361176 -124.71576023 73.45646667 C-127.06239299 76.88037595 -127.12023723 78.76132131 -127.1103363 82.8840332 C-127.11629644 83.86520221 -127.11629644 83.86520221 -127.12237698 84.86619282 C-127.13094511 87.05054312 -127.11116343 89.23370359 -127.09155273 91.41796875 C-127.09210163 92.98692994 -127.09447733 94.55589139 -127.09854126 96.12484741 C-127.10371445 99.49980514 -127.09665512 102.87443787 -127.08028984 106.24935913 C-127.05517327 111.58601404 -127.06145459 116.92234804 -127.07276917 122.2590332 C-127.09596974 135.51285338 -127.07752994 148.76658083 -127.05126953 162.02038574 C-127.03132958 172.32361704 -127.0227315 182.62659228 -127.04820591 192.92982388 C-127.06002774 198.23495798 -127.04835447 203.539363 -127.0189532 208.84442139 C-127.00570019 212.14434008 -127.01311418 215.44397582 -127.02623367 218.74388504 C-127.02809059 220.27373311 -127.02137078 221.80361933 -127.00543022 223.33338547 C-126.98484356 225.42314247 -126.99500212 227.51060861 -127.01268005 229.6003418 C-127.01025016 230.76913376 -127.00782026 231.93792572 -127.00531673 233.14213562 C-127.81216622 237.1785126 -129.5004438 238.65542387 -132.625 241.2421875 C-140.63936519 245.23560858 -150.18377314 244.67298402 -158.9140625 244.57836914 C-161.2529529 244.55465756 -163.59070616 244.55784445 -165.9296875 244.56445312 C-185.76731821 244.52833293 -185.76731821 244.52833293 -193.625 238.2421875 C-195.3648132 234.7625611 -194.77293174 230.71717276 -194.77217102 226.8860321 C-194.77584771 225.90371496 -194.7795244 224.92139783 -194.7833125 223.9093135 C-194.79438183 220.59668232 -194.79819866 217.28408248 -194.80200195 213.97143555 C-194.80826408 211.60489807 -194.81491066 209.23836157 -194.82191467 206.87182617 C-194.8411655 199.75504106 -194.85174596 192.63825533 -194.86064246 185.52145144 C-194.86502408 182.17138734 -194.8703912 178.82132483 -194.87563133 175.47126198 C-194.89264397 164.33734178 -194.9071388 153.20342258 -194.91438007 142.06949139 C-194.91629002 139.17954698 -194.91821034 136.28960258 -194.92016602 133.3996582 C-194.92064976 132.6813626 -194.9211335 131.96306699 -194.9216319 131.22300486 C-194.92993466 119.58347977 -194.95527552 107.94405737 -194.98774669 96.30457713 C-195.02080023 84.35912651 -195.03882727 72.4137281 -195.04202431 60.4682315 C-195.04419096 53.75939779 -195.052962 47.05071385 -195.07848549 40.34192467 C-195.10169291 34.0324993 -195.10602892 27.72334393 -195.09572411 21.41388702 C-195.09522687 19.09550646 -195.10160223 16.77711293 -195.11528015 14.45877266 C-195.13288452 11.29861917 -195.125949 8.13944672 -195.11274719 4.97929382 C-195.12371644 4.05750373 -195.13468568 3.13571364 -195.14598733 2.18599051 C-195.10372525 -1.99161149 -194.98580691 -4.18102995 -192.72474957 -7.79553509 C-185.90163802 -14.17193249 -175.2773164 -13.18626269 -166.5625 -13.0703125 C-164.74008789 -13.07514648 -164.74008789 -13.07514648 -162.88085938 -13.08007812 C-144.27908961 -12.96917326 -144.27908961 -12.96917326 -138.70214844 -7.72900391 C-135.9878233 -2.7617643 -136.73681338 3.53147085 -136.75 9.0546875 C-136.73186269 10.42907468 -136.71105671 11.8034294 -136.6875 13.17773438 C-136.64040627 16.53316296 -136.62055916 19.88649595 -136.625 23.2421875 C-135.55185547 22.11683594 -135.55185547 22.11683594 -134.45703125 20.96875 C-99.89628662 -14.75478604 -43.18915119 -33.97830699 0 0 Z " fill="#8B6F47" transform="translate(278.625,175.7578125)"/>
<path d="M0 0 C5.01137019 4.5848706 6.43719894 9.60096324 8 16 C8.17273438 16.60787354 8.34546875 17.21574707 8.5234375 17.84204102 C11.44261199 31.06057757 10.40206353 50.81788447 3.6875 62.6875 C-0.61474334 69.25408194 -8.19710991 71.53988535 -15.4609375 73.234375 C-29.79669142 75.99742932 -46.42956732 75.6689763 -59.0625 67.6875 C-67.41182938 60.04875184 -68.52712458 49.51175753 -69.12768555 38.70166016 C-69.56225638 25.56890145 -69.98546431 11.62600958 -60.5390625 1.421875 C-46.74276982 -11.92101839 -14.98454063 -10.22709142 0 0 Z " fill="#8B6F47" transform="translate(412,348)"/>
</svg>
