<?xml version="1.0" encoding="UTF-8"?>
<svg version="1.1" xmlns="http://www.w3.org/2000/svg" width="512" height="512">
<path d="M0 0 C0.6886783 -0.00265183 1.37735659 -0.00530365 2.08690393 -0.00803584 C4.4056911 -0.01572462 6.72442527 -0.01628785 9.04322433 -0.01688576 C10.71819306 -0.02090069 12.39316081 -0.02533897 14.06812739 -0.03016531 C18.68004159 -0.04213382 23.29194533 -0.04777994 27.90387201 -0.05234647 C32.87484963 -0.05830174 37.84581473 -0.069912 42.81678391 -0.08063698 C54.82864462 -0.10516619 66.84050949 -0.11979069 78.85238755 -0.13269705 C82.24599905 -0.13640917 85.63961015 -0.14038241 89.03322124 -0.14444971 C110.11211934 -0.16969093 131.1910181 -0.19174173 152.26992798 -0.20417786 C157.15324277 -0.20710752 162.03655754 -0.21006918 166.91987228 -0.21308327 C168.13358414 -0.21382932 169.34729599 -0.21457537 170.59778699 -0.21534403 C190.24500842 -0.22798885 209.89213917 -0.26119948 229.53931823 -0.3028851 C249.71702415 -0.34534473 269.89468372 -0.36887772 290.07243419 -0.37409842 C301.39877069 -0.3775084 312.72496561 -0.38921462 324.05125809 -0.42220116 C333.7008564 -0.45025844 343.35028411 -0.46117618 352.99992004 -0.4500057 C357.91941371 -0.44483321 362.83855041 -0.44761374 367.75799179 -0.47247124 C372.2714339 -0.49508572 376.78426516 -0.49413001 381.29771885 -0.47526737 C382.92103108 -0.47248431 384.54438582 -0.47797039 386.16763011 -0.4930803 C405.80819551 -0.66456235 421.3792 5.14177897 435.89936447 18.76592064 C449.61956272 33.02646916 453.48824249 49.40918497 453.44804001 68.5008297 C453.45177882 70.18138976 453.45638126 71.86194808 453.46177065 73.54250365 C453.4739876 78.15119301 453.47374172 82.75980971 453.4713819 87.36851156 C453.4709734 92.34277421 453.48201607 97.31701367 453.49149704 102.29126549 C453.50810108 112.03355533 453.51360633 121.77582096 453.5147218 131.51812377 C453.51567259 139.43878279 453.51978448 147.35943383 453.52612305 155.28009033 C453.54373418 177.74468716 453.55296217 200.20926489 453.5514621 222.67386868 C453.55134223 224.49000203 453.55134223 224.49000203 453.55121994 226.34282494 C453.55113818 227.55506172 453.55105642 228.76729849 453.55097218 230.01626972 C453.55015941 249.65878564 453.56929502 269.30122484 453.59749667 288.94371857 C453.62623631 309.1204115 453.64003636 329.29706702 453.63830912 349.47378093 C453.63764557 360.79825665 453.64312246 372.12265196 453.66466522 383.44710922 C453.68289124 393.08973413 453.68721267 402.73224219 453.67364638 412.37487688 C453.66712382 417.2919468 453.66697381 422.20879264 453.68435287 427.12584114 C453.70012017 431.6333525 453.69718273 436.14046278 453.67978461 440.64796457 C453.67672275 442.27244309 453.68031622 443.89695182 453.69150476 445.52139469 C453.80935879 463.85713942 448.72903042 479.48544099 436.18061447 493.13701439 C434.08715562 494.99867157 431.97584213 496.77234989 429.74702072 498.46904564 C427.75489642 500.59033511 427.52349717 502.2925368 427.18061447 505.13701439 C425.88123947 505.21951439 424.58186447 505.30201439 423.24311447 505.38701439 C418.89919929 505.85607565 415.56711554 507.09009022 411.71186447 509.10185814 C402.6767355 512.79677971 393.34428337 512.42223045 383.76574326 512.3977108 C382.09185739 512.40073387 380.41797291 512.40462414 378.74409086 512.40930337 C374.15852948 512.41957205 369.57304638 512.41740441 364.98747861 512.41312277 C360.03643222 512.41065349 355.08540458 512.41967225 350.13436508 512.42716026 C340.44000323 512.43990383 330.74566907 512.44170136 321.05130025 512.43936 C313.17022596 512.43757623 305.28916007 512.43932774 297.40808678 512.44358444 C296.2859742 512.44417963 295.16386162 512.44477482 294.00774563 512.44538805 C291.72808621 512.44659981 289.44842679 512.44781395 287.16876737 512.44903042 C265.79401459 512.45990473 244.4192776 512.45774403 223.04452393 512.45164558 C203.49840699 512.446477 183.95233988 512.4577305 164.4062328 512.47674379 C144.32782487 512.49612488 124.24944053 512.50437769 104.17102319 512.50062054 C92.90194293 512.49870885 81.6329051 512.50119295 70.36383247 512.51533508 C60.76989145 512.52725331 51.17601896 512.52864881 41.58207699 512.51654492 C36.68946448 512.51065926 31.7969773 512.50954818 26.90437317 512.52154732 C22.42044944 512.53241614 17.93675553 512.52929085 13.45284251 512.51528563 C11.83581597 512.51264146 10.21877135 512.51499642 8.60176256 512.5230215 C-1.51866647 512.56973878 -11.69685623 512.45338443 -20.81938553 507.51201439 C-25.59013971 505.32541872 -30.62685698 505.38067673 -35.81938553 505.13701439 C-35.81938553 504.14701439 -35.81938553 503.15701439 -35.81938553 502.13701439 C-36.47129497 497.48051837 -39.30954596 495.44064898 -42.62797928 492.35967064 C-55.93358707 478.86432156 -59.12485725 461.84084339 -59.08681107 443.77319908 C-59.09054988 442.09263902 -59.09515232 440.4120807 -59.10054171 438.73152512 C-59.11275866 434.12283577 -59.11251278 429.51421907 -59.11015296 424.90551722 C-59.10974446 419.93125457 -59.12078713 414.95701511 -59.1302681 409.98276329 C-59.14687214 400.24047345 -59.15237738 390.49820782 -59.15349285 380.75590501 C-59.15444365 372.83524599 -59.15855554 364.91459494 -59.1648941 356.99393845 C-59.18250523 334.52934161 -59.19173323 312.06476388 -59.19023316 289.6001601 C-59.19015324 288.38940453 -59.19007333 287.17864897 -59.189991 285.93120384 C-59.18990924 284.71896706 -59.18982747 283.50673028 -59.18974324 282.25775906 C-59.18893047 262.61524314 -59.20806608 242.97280393 -59.23626773 223.3303102 C-59.26500737 203.15361728 -59.27880741 182.97696176 -59.27708018 162.80024785 C-59.27641663 151.47577213 -59.28189351 140.15137682 -59.30343628 128.82691956 C-59.3216623 119.18429465 -59.32598373 109.54178659 -59.31241743 99.8991519 C-59.30589488 94.98208197 -59.30574487 90.06523614 -59.32312393 85.14818764 C-59.33889122 80.64067628 -59.33595379 76.133566 -59.31855567 71.6260642 C-59.3154938 70.00158569 -59.31908728 68.37707696 -59.33027582 66.75263409 C-59.45659936 47.09920152 -53.45019515 31.13061991 -39.69047928 16.94170189 C-29.12570493 7.00060832 -14.6178972 0.02771614 0 0 Z " fill="#FDEF89" transform="translate(58.81938552856445,-0.13701438903808594)"/>
<path d="M0 0 C0.6886783 -0.00265183 1.37735659 -0.00530365 2.08690393 -0.00803584 C4.4056911 -0.01572462 6.72442527 -0.01628785 9.04322433 -0.01688576 C10.71819306 -0.02090069 12.39316081 -0.02533897 14.06812739 -0.03016531 C18.68004159 -0.04213382 23.29194533 -0.04777994 27.90387201 -0.05234647 C32.87484963 -0.05830174 37.84581473 -0.069912 42.81678391 -0.08063698 C54.82864462 -0.10516619 66.84050949 -0.11979069 78.85238755 -0.13269705 C82.24599905 -0.13640917 85.63961015 -0.14038241 89.03322124 -0.14444971 C110.11211934 -0.16969093 131.1910181 -0.19174173 152.26992798 -0.20417786 C157.15324277 -0.20710752 162.03655754 -0.21006918 166.91987228 -0.21308327 C168.13358414 -0.21382932 169.34729599 -0.21457537 170.59778699 -0.21534403 C190.24500842 -0.22798885 209.89213917 -0.26119948 229.53931823 -0.3028851 C249.71702415 -0.34534473 269.89468372 -0.36887772 290.07243419 -0.37409842 C301.39877069 -0.3775084 312.72496561 -0.38921462 324.05125809 -0.42220116 C333.7008564 -0.45025844 343.35028411 -0.46117618 352.99992004 -0.4500057 C357.91941371 -0.44483321 362.83855041 -0.44761374 367.75799179 -0.47247124 C372.2714339 -0.49508572 376.78426516 -0.49413001 381.29771885 -0.47526737 C382.92103108 -0.47248431 384.54438582 -0.47797039 386.16763011 -0.4930803 C405.80819551 -0.66456235 421.3792 5.14177897 435.89936447 18.76592064 C449.61956272 33.02646916 453.48824249 49.40918497 453.44804001 68.5008297 C453.45177882 70.18138976 453.45638126 71.86194808 453.46177065 73.54250365 C453.4739876 78.15119301 453.47374172 82.75980971 453.4713819 87.36851156 C453.4709734 92.34277421 453.48201607 97.31701367 453.49149704 102.29126549 C453.50810108 112.03355533 453.51360633 121.77582096 453.5147218 131.51812377 C453.51567259 139.43878279 453.51978448 147.35943383 453.52612305 155.28009033 C453.54373418 177.74468716 453.55296217 200.20926489 453.5514621 222.67386868 C453.55134223 224.49000203 453.55134223 224.49000203 453.55121994 226.34282494 C453.55113818 227.55506172 453.55105642 228.76729849 453.55097218 230.01626972 C453.55015941 249.65878564 453.56929502 269.30122484 453.59749667 288.94371857 C453.62623631 309.1204115 453.64003636 329.29706702 453.63830912 349.47378093 C453.63764557 360.79825665 453.64312246 372.12265196 453.66466522 383.44710922 C453.68289124 393.08973413 453.68721267 402.73224219 453.67364638 412.37487688 C453.66712382 417.2919468 453.66697381 422.20879264 453.68435287 427.12584114 C453.70012017 431.6333525 453.69718273 436.14046278 453.67978461 440.64796457 C453.67672275 442.27244309 453.68031622 443.89695182 453.69150476 445.52139469 C453.80935879 463.85713942 448.72903042 479.48544099 436.18061447 493.13701439 C434.08715562 494.99867157 431.97584213 496.77234989 429.74702072 498.46904564 C427.75489642 500.59033511 427.52349717 502.2925368 427.18061447 505.13701439 C425.88123947 505.21951439 424.58186447 505.30201439 423.24311447 505.38701439 C418.89919929 505.85607565 415.56711554 507.09009022 411.71186447 509.10185814 C402.6767355 512.79677971 393.34428337 512.42223045 383.76574326 512.3977108 C382.09185739 512.40073387 380.41797291 512.40462414 378.74409086 512.40930337 C374.15852948 512.41957205 369.57304638 512.41740441 364.98747861 512.41312277 C360.03643222 512.41065349 355.08540458 512.41967225 350.13436508 512.42716026 C340.44000323 512.43990383 330.74566907 512.44170136 321.05130025 512.43936 C313.17022596 512.43757623 305.28916007 512.43932774 297.40808678 512.44358444 C296.2859742 512.44417963 295.16386162 512.44477482 294.00774563 512.44538805 C291.72808621 512.44659981 289.44842679 512.44781395 287.16876737 512.44903042 C265.79401459 512.45990473 244.4192776 512.45774403 223.04452393 512.45164558 C203.49840699 512.446477 183.95233988 512.4577305 164.4062328 512.47674379 C144.32782487 512.49612488 124.24944053 512.50437769 104.17102319 512.50062054 C92.90194293 512.49870885 81.6329051 512.50119295 70.36383247 512.51533508 C60.76989145 512.52725331 51.17601896 512.52864881 41.58207699 512.51654492 C36.68946448 512.51065926 31.7969773 512.50954818 26.90437317 512.52154732 C22.42044944 512.53241614 17.93675553 512.52929085 13.45284251 512.51528563 C11.83581597 512.51264146 10.21877135 512.51499642 8.60176256 512.5230215 C-1.51866647 512.56973878 -11.69685623 512.45338443 -20.81938553 507.51201439 C-25.59013971 505.32541872 -30.62685698 505.38067673 -35.81938553 505.13701439 C-35.81938553 504.14701439 -35.81938553 503.15701439 -35.81938553 502.13701439 C-36.47129497 497.48051837 -39.30954596 495.44064898 -42.62797928 492.35967064 C-55.93358707 478.86432156 -59.12485725 461.84084339 -59.08681107 443.77319908 C-59.09054988 442.09263902 -59.09515232 440.4120807 -59.10054171 438.73152512 C-59.11275866 434.12283577 -59.11251278 429.51421907 -59.11015296 424.90551722 C-59.10974446 419.93125457 -59.12078713 414.95701511 -59.1302681 409.98276329 C-59.14687214 400.24047345 -59.15237738 390.49820782 -59.15349285 380.75590501 C-59.15444365 372.83524599 -59.15855554 364.91459494 -59.1648941 356.99393845 C-59.18250523 334.52934161 -59.19173323 312.06476388 -59.19023316 289.6001601 C-59.19015324 288.38940453 -59.19007333 287.17864897 -59.189991 285.93120384 C-59.18990924 284.71896706 -59.18982747 283.50673028 -59.18974324 282.25775906 C-59.18893047 262.61524314 -59.20806608 242.97280393 -59.23626773 223.3303102 C-59.26500737 203.15361728 -59.27880741 182.97696176 -59.27708018 162.80024785 C-59.27641663 151.47577213 -59.28189351 140.15137682 -59.30343628 128.82691956 C-59.3216623 119.18429465 -59.32598373 109.54178659 -59.31241743 99.8991519 C-59.30589488 94.98208197 -59.30574487 90.06523614 -59.32312393 85.14818764 C-59.33889122 80.64067628 -59.33595379 76.133566 -59.31855567 71.6260642 C-59.3154938 70.00158569 -59.31908728 68.37707696 -59.33027582 66.75263409 C-59.45659936 47.09920152 -53.45019515 31.13061991 -39.69047928 16.94170189 C-29.12570493 7.00060832 -14.6178972 0.02771614 0 0 Z M3.86811447 75.76201439 C3.37698166 76.35240501 2.88584885 76.94279564 2.37983322 77.55107689 C-0.04167787 80.75346614 0.05455143 83.00751508 0.05198002 86.97577953 C0.04875557 88.22721715 0.04553113 89.47865476 0.04220897 90.76801473 C0.04368034 92.16964529 0.04524808 93.57127575 0.0469017 94.97290611 C0.04503504 96.45187268 0.04273493 97.93083876 0.04003638 99.40980405 C0.03389391 103.48880288 0.03405484 107.5677813 0.03523076 111.64678371 C0.03543415 116.04020817 0.02992186 120.43362596 0.02517319 124.82704735 C0.01685246 133.44049993 0.0141177 142.05394568 0.01356081 150.66740195 C0.01308628 157.6667412 0.0110347 164.66607818 0.00786018 171.66541672 C-0.0009506 191.49444595 -0.00555858 211.32346976 -0.00480934 231.15250096 C-0.00476939 232.22238795 -0.00472943 233.29227494 -0.00468826 234.39458275 C-0.00464738 235.4657709 -0.0046065 236.53695904 -0.00456438 237.64060744 C-0.00415789 255.00296858 -0.01372723 272.36530803 -0.02782663 289.7276629 C-0.0421778 307.54013738 -0.04909749 325.35260127 -0.04823285 343.16508168 C-0.04790043 353.17144987 -0.05066739 363.17779533 -0.0614109 373.18415833 C-0.07049942 381.70394529 -0.07270481 390.22369924 -0.06590148 398.74348895 C-0.06262779 403.09239263 -0.06261005 407.44123289 -0.07125473 411.79013062 C-0.07908341 415.76937749 -0.07772572 419.74851028 -0.0689706 423.72775426 C-0.06742755 425.16922797 -0.06928186 426.61071004 -0.07483067 428.05217389 C-0.08186353 430.00834645 -0.0754184 431.96455367 -0.0682745 433.92072582 C-0.06849187 435.00829986 -0.06870923 436.09587391 -0.06893319 437.21640474 C0.18791262 440.22242906 0.91188799 442.41579116 2.18061447 445.13701439 C2.84061447 445.13701439 3.50061447 445.13701439 4.18061447 445.13701439 C4.52092697 446.00326439 4.52092697 446.00326439 4.86811447 446.88701439 C6.84690984 450.27923502 9.69048389 452.3919491 13.18061447 454.13701439 C15.13722472 454.23371012 17.09720324 454.26438773 19.05620098 454.26564884 C20.31583878 454.26887329 21.57547659 454.27209773 22.87328523 454.27541989 C24.28415432 454.27394852 25.6950233 454.27238079 27.10589218 454.27072716 C28.59453373 454.2725938 30.0831748 454.27489392 31.57181507 454.27759248 C35.67747825 454.28373498 39.78312114 454.28357402 43.88878787 454.2823981 C48.31080418 454.28219471 52.73281386 454.28770692 57.15482712 454.29245567 C65.82375665 454.30077607 74.49267938 454.30351114 83.16161256 454.30406805 C90.20482865 454.30454253 97.24804248 454.30659387 104.29125786 454.30976868 C124.24109346 454.31857886 144.19092368 454.32318746 164.14076125 454.3224382 C165.75534089 454.32237827 165.75534089 454.32237827 167.4025383 454.32231712 C168.4802323 454.32227624 169.5579263 454.32223536 170.66827769 454.32219324 C188.14192084 454.32178661 205.61554247 454.33135941 223.08917939 454.34545549 C241.01238541 454.35980066 258.93558093 454.36672671 276.85879284 454.36586171 C286.92881336 454.36552911 296.99881131 454.36830382 307.06882668 454.37903976 C315.6413716 454.38812034 324.21388372 454.39034021 332.78643136 454.38353034 C337.16344083 454.38025279 341.54038726 454.38025268 345.91739082 454.38888359 C349.91997157 454.39669529 353.92243874 454.39537231 357.92501653 454.38659946 C359.37722174 454.38505262 360.8294352 454.38692465 362.28163069 454.39245953 C364.24747149 454.39945909 366.21334661 454.39306559 368.17918682 454.38590336 C369.27359583 454.38612073 370.36800484 454.38633809 371.49557775 454.38656205 C374.40500874 454.33070551 374.40500874 454.33070551 377.18061447 452.13701439 C377.18061447 451.47701439 377.18061447 450.81701439 377.18061447 450.13701439 C377.81998947 449.86888939 378.45936447 449.60076439 379.11811447 449.32451439 C381.51193133 448.25033687 381.51193133 448.25033687 382.18061447 445.13701439 C382.84061447 445.13701439 383.50061447 445.13701439 384.18061447 445.13701439 C385.98905825 441.25483228 386.43234319 438.20016512 386.43788338 433.93189907 C386.44755672 432.04670798 386.44755672 432.04670798 386.45742548 430.12343222 C386.45448329 428.73131715 386.45134786 427.33920249 386.44804001 425.94708824 C386.45177657 424.46624343 386.45637812 422.98540059 386.46177065 421.50456089 C386.47401506 417.43425371 386.4737385 413.36402865 386.4713819 409.29370725 C386.47097411 404.90439673 386.48200923 400.51511266 386.49149704 396.12581444 C386.50811524 387.52647134 386.51360693 378.92715565 386.5147218 370.32779784 C386.51567176 363.33950087 386.51977944 356.35121296 386.52612305 349.36291885 C386.54373667 329.55667628 386.55296157 309.75045539 386.5514621 289.94420493 C386.55138219 288.87627688 386.55130227 287.80834882 386.55121994 286.70805931 C386.5510973 285.10421531 386.5510973 285.10421531 386.55097218 283.46797042 C386.55015895 266.13231369 386.56930558 248.79674377 386.59749667 231.46111215 C386.62620425 213.66774342 386.64003818 195.87441707 386.63830912 178.08102459 C386.63764455 168.08861401 386.64316647 158.09629447 386.66466522 148.10390472 C386.68284893 139.59772991 386.68724744 131.09168742 386.67364638 122.58550162 C386.66710285 118.2444847 386.66704928 113.90372185 386.68435287 109.56272888 C386.7000275 105.58960036 386.69727791 101.61692857 386.67978461 97.64381158 C386.67670231 96.20577296 386.68039327 94.76770072 386.69150476 93.32970173 C387.00073278 83.35905221 387.00073278 83.35905221 382.18061447 75.13701439 C377.07331776 70.55354298 372.94873798 67.76330935 365.97549915 67.75669765 C364.71870509 67.74825771 363.46191103 67.73981777 362.1670323 67.73112208 C360.77491647 67.73691715 359.3828018 67.74299818 357.99068832 67.74933434 C356.50984176 67.74516169 355.02899839 67.73968455 353.54816097 67.73301452 C349.47781282 67.71853208 345.40766667 67.72281332 341.33730733 67.73018134 C336.94799027 67.7349038 332.55871748 67.72241135 328.16941452 67.71216393 C319.57005557 67.69495255 310.97076962 67.69414074 302.37139792 67.69937683 C295.38309738 67.70341536 288.39481844 67.70197875 281.40651894 67.69662857 C280.41257404 67.69588015 279.41862914 67.69513173 278.3945647 67.69436062 C276.37548375 67.69282918 274.35640281 67.69129083 272.33732187 67.68974566 C253.39539068 67.67601219 234.45350076 67.68146429 215.51157051 67.69293087 C198.17591002 67.70286451 180.84035625 67.6899218 163.50471223 67.66599668 C145.71133858 67.64162453 127.91801468 67.63199314 110.12462467 67.6386494 C100.13221982 67.64214577 90.13989706 67.63988204 80.14750481 67.62239838 C71.64132287 67.60769997 63.13528083 67.60700999 54.6291017 67.62446929 C50.28808979 67.63300111 45.94732805 67.63507582 41.60632896 67.61981773 C37.63319216 67.60602536 33.66052114 67.61066296 29.68741166 67.63005697 C28.24937643 67.63383412 26.81130439 67.6308458 25.37330181 67.62044532 C15.62527898 67.55494993 10.22059117 67.98836366 3.86811447 75.76201439 Z " fill="#8A6E46" transform="translate(58.81938552856445,-0.13701438903808594)"/>
<path d="M0 0 C2.69971487 2.69971487 2.25055499 4.06651207 2.25168228 7.84435177 C2.25689778 9.09702278 2.26211327 10.34969379 2.26748681 11.64032453 C2.26316202 13.04333359 2.25864868 14.44634207 2.25396729 15.84934998 C2.25626964 17.3297429 2.25944464 18.81013469 2.26342177 20.29052407 C2.27180953 24.37340933 2.26762655 28.45620171 2.26144934 32.53908741 C2.256942 36.93656696 2.26390006 41.33403003 2.26940918 45.73150635 C2.27832349 54.35231901 2.27637206 62.97309694 2.2705839 71.59391098 C2.26607511 78.59803669 2.2654511 85.60215263 2.26763153 92.60627937 C2.267938 93.60149691 2.26824446 94.59671445 2.26856022 95.62209009 C2.26919964 97.64359283 2.26984807 99.66509557 2.2705054 101.68659831 C2.27621474 120.66275505 2.2696415 139.63889251 2.25890467 158.61504609 C2.24996998 174.91077282 2.25151935 191.20647105 2.26074219 207.50219727 C2.27143654 226.40688438 2.27566391 245.31155456 2.26951766 264.21624428 C2.26888054 266.2307978 2.26825179 268.24535133 2.26763153 270.25990486 C2.2671687 271.74686007 2.2671687 271.74686007 2.26669653 273.26385478 C2.26496698 280.26210866 2.26789031 287.26035183 2.27259064 294.25860405 C2.27819027 302.7835755 2.27670247 311.3085101 2.26602915 319.83347731 C2.26075982 324.18618124 2.25873704 328.53882365 2.26532745 332.89152718 C2.27126313 336.87190724 2.26805145 340.85216846 2.25737235 344.83253766 C2.25512814 346.27666586 2.2562973 347.72080399 2.26112393 349.16492587 C2.2671594 351.11987949 2.25980479 353.07486102 2.25168228 355.02980709 C2.25135758 356.11814057 2.25103287 357.20647406 2.25069833 358.32778734 C2 361 2 361 0 364 C0 354.76 0 345.52 0 336 C-1.32 339.63 -2.64 343.26 -4 347 C-9.68821198 356.66615978 -19.11389833 364.42243089 -29.9296875 367.52734375 C-41.19633924 370.0995416 -52.87406247 370.18135737 -63.125 364.3125 C-73.40466758 357.63634656 -82.41563166 349.09054165 -85.57421875 336.84375 C-87.03696478 327.07421687 -87.5104366 315.47759477 -82 307 C-81.57332031 305.90816406 -81.14664062 304.81632812 -80.70703125 303.69140625 C-76.72562199 294.27790161 -67.57397054 288.14459894 -58.62890625 284.0234375 C-48.92224331 280.24461775 -35.86289335 280.86868263 -26 284 C-16.71806215 288.1996498 -6.93709241 295.39154208 -2.71875 304.8828125 C-1.69928823 307.88579229 -0.87122512 310.95071209 0 314 C0 210.38 0 106.76 0 0 Z " fill="#FB926C" transform="translate(443,79)"/>
<path d="M0 0 C3.1875 1.6875 3.1875 1.6875 5.1875 4.6875 C7.75782774 3.45374269 10.0377695 2.13155456 12.4375 0.5625 C16.57359129 -1.80224598 19.45937112 -1.83784765 24.1875 -1.3125 C29.38469122 0.48652773 31.51599441 2.93815673 34.1875 7.6875 C35.37225859 11.24177577 35.33095718 14.46612078 35.3203125 18.1640625 C35.32126923 18.88991547 35.32222595 19.61576843 35.32321167 20.36361694 C35.32389134 21.89508145 35.32205189 23.42654886 35.31787109 24.95800781 C35.31250431 27.31061201 35.31783116 29.66302662 35.32421875 32.015625 C35.32355823 33.50260459 35.32227762 34.98958406 35.3203125 36.4765625 C35.32233673 37.18382477 35.32436096 37.89108704 35.32644653 38.61978149 C35.30246243 43.57253757 35.30246243 43.57253757 34.1875 44.6875 C32.52320949 44.78573937 30.85468069 44.81723631 29.1875 44.8125 C27.82625 44.81636719 27.82625 44.81636719 26.4375 44.8203125 C24.1875 44.6875 24.1875 44.6875 23.1875 43.6875 C23.04077253 41.43251055 22.95995016 39.17318238 22.90625 36.9140625 C22.88784058 36.23451508 22.86943115 35.55496765 22.85046387 34.85482788 C22.79155262 32.67414228 22.73883167 30.4933764 22.6875 28.3125 C22.61980563 25.45035655 22.54606316 22.58846036 22.46875 19.7265625 C22.43845703 18.44990723 22.40816406 17.17325195 22.37695312 15.85791016 C22.32345491 12.66357229 22.32345491 12.66357229 21.1875 9.6875 C17.12256328 9.28100633 14.68158599 9.440457 11 11.28125 C7.6694971 14.2274641 7.65128017 17.21638612 7.3828125 21.51953125 C7.32965478 24.1840619 7.3061403 26.83623979 7.3125 29.5 C7.29436269 30.87438718 7.27355671 32.2487419 7.25 33.62304688 C7.20290627 36.97847546 7.18305916 40.33180845 7.1875 43.6875 C3.93446956 45.31401522 0.79524398 44.80203156 -2.8125 44.6875 C-4.681053 42.818947 -4.03200019 39.66735787 -4.09375 37.16796875 C-4.11215942 36.51298904 -4.13056885 35.85800934 -4.14953613 35.18318176 C-4.2084407 33.08054823 -4.26114706 30.9778307 -4.3125 28.875 C-4.38033126 26.1183248 -4.45411346 23.36189736 -4.53125 20.60546875 C-4.56154297 19.37594482 -4.59183594 18.1464209 -4.62304688 16.87963867 C-4.77618934 14.29930652 -5.05696165 12.14261728 -5.8125 9.6875 C-9.87743672 9.28100633 -12.31841401 9.440457 -16 11.28125 C-19.3305029 14.2274641 -19.34871983 17.21638612 -19.6171875 21.51953125 C-19.67034522 24.1840619 -19.6938597 26.83623979 -19.6875 29.5 C-19.70563731 30.87438718 -19.72644329 32.2487419 -19.75 33.62304688 C-19.79709373 36.97847546 -19.81694084 40.33180845 -19.8125 43.6875 C-23.06553044 45.31401522 -26.20475602 44.80203156 -29.8125 44.6875 C-31.34334425 43.15665575 -30.93965779 41.77546856 -30.94189453 39.64257812 C-30.94504669 38.78498901 -30.94819885 37.9273999 -30.95144653 37.04382324 C-30.9494223 36.11154907 -30.94739807 35.1792749 -30.9453125 34.21875 C-30.94626923 33.26810669 -30.94722595 32.31746338 -30.94821167 31.3380127 C-30.94889357 29.32381118 -30.94703862 27.30960748 -30.94287109 25.29541016 C-30.93752298 22.20079645 -30.94281577 19.1063279 -30.94921875 16.01171875 C-30.94855797 14.05989551 -30.94727681 12.10807236 -30.9453125 10.15625 C-30.94733673 9.22397583 -30.94936096 8.29170166 -30.95144653 7.33117676 C-30.94829437 6.47358765 -30.94514221 5.61599854 -30.94189453 4.73242188 C-30.94109894 3.97376831 -30.94030334 3.21511475 -30.93948364 2.43347168 C-30.8125 0.6875 -30.8125 0.6875 -29.8125 -0.3125 C-23.28707627 -0.54978814 -23.28707627 -0.54978814 -20.8125 0.6875 C-20.1875 2.75 -20.1875 2.75 -19.8125 4.6875 C-19.07 4.06875 -18.3275 3.45 -17.5625 2.8125 C-11.87555457 -1.58195783 -6.93508381 -2.74513734 0 0 Z " fill="#8D7148" transform="translate(355.8125,126.3125)"/>
<path d="M0 0 C4.44656495 3.29733198 6.17023793 6.98161669 7.6171875 12.19921875 C8.38824729 20.85122687 8.80628947 29.79109291 3.6171875 37.19921875 C-0.79490237 41.98948776 -6.79337408 43.77543015 -13.12890625 44.5234375 C-19.33581529 44.77309126 -24.39038417 44.08221856 -29.3828125 40.19921875 C-35.94891002 33.14189199 -35.81727847 25.58495317 -35.6640625 16.359375 C-35.38794984 10.15374295 -33.51594146 6.39160129 -29.1328125 1.88671875 C-20.2334863 -3.57423142 -9.39010078 -5.55223801 0 0 Z " fill="#8D7148" transform="translate(172.3828125,127.80078125)"/>
<path d="M0 0 C3.86958296 3.19169982 5.95028664 7.13314714 7 12 C7.24025464 15.02107428 7.4091554 17.99150442 7 21 C5 23 5 23 2.29443359 23.22705078 C1.17375488 23.21657715 0.05307617 23.20610352 -1.1015625 23.1953125 C-2.91914063 23.18564453 -2.91914063 23.18564453 -4.7734375 23.17578125 C-6.04445312 23.15902344 -7.31546875 23.14226562 -8.625 23.125 C-9.90375 23.11597656 -11.1825 23.10695312 -12.5 23.09765625 C-15.66685167 23.07402303 -18.83333424 23.04107629 -22 23 C-20.34231256 28.41621885 -20.34231256 28.41621885 -17.13671875 32.98046875 C-10.46362354 36.16452332 -1.80925453 33.78603398 5 32 C5 34.64 5 37.28 5 40 C-2.16801693 44.1489297 -8.80285665 44.88450982 -17 44 C-22.63074218 42.39613334 -27.29339732 40.35393473 -30.8125 35.5 C-34.3705408 28.00938778 -34.328777 17.28473597 -32.31640625 9.28125 C-29.81571597 3.88556974 -25.81576284 0.59813566 -20.6875 -2.3125 C-13.64138134 -4.11499547 -6.47557762 -3.35724121 0 0 Z " fill="#8C7148" transform="translate(253,128)"/>
<path d="M0 0 C99 0 198 0 300 0 C300 1.32 300 2.64 300 4 C201 4 102 4 0 4 C0 2.68 0 1.36 0 0 Z " fill="#696649" transform="translate(102,198)"/>
<path d="M0 0 C3.39238409 2.23588951 5.95936459 4.59034752 7.34936523 8.49707031 C7.92131154 11.80257842 7.87226194 15.07905409 7.84765625 18.421875 C7.8462413 19.14868469 7.84482635 19.87549438 7.84336853 20.62432861 C7.83778792 22.93709494 7.82523904 25.24976312 7.8125 27.5625 C7.80748249 29.13411318 7.80292002 30.70572789 7.79882812 32.27734375 C7.78782485 36.12243343 7.77057361 39.9674501 7.75 43.8125 C4.49696956 45.43901522 1.35774398 44.92703156 -2.25 44.8125 C-4.11721787 42.94528213 -3.42520408 39.78758776 -3.4609375 37.29296875 C-3.48901569 35.94725366 -3.51768022 34.6015507 -3.546875 33.25585938 C-3.58808294 31.1294806 -3.6249587 29.00332591 -3.65136719 26.87670898 C-3.67903687 24.82748254 -3.72491621 22.77929353 -3.7734375 20.73046875 C-3.79325684 19.50094482 -3.81307617 18.2714209 -3.83349609 17.00463867 C-4.27600615 13.61318556 -4.81942737 12.17926199 -7.25 9.8125 C-11.08793704 9.04491259 -12.91524963 9.64117435 -16.39453125 11.421875 C-18.81043938 13.52300683 -19.23704188 14.74215512 -19.82641602 17.94165039 C-20.06683745 21.84162037 -20.13432347 25.71986453 -20.125 29.625 C-20.14313731 30.99938718 -20.16394329 32.3737419 -20.1875 33.74804688 C-20.23459373 37.10347546 -20.25444084 40.45680845 -20.25 43.8125 C-23.50303044 45.43901522 -26.64225602 44.92703156 -30.25 44.8125 C-31.78084425 43.28165575 -31.37715779 41.90046856 -31.37939453 39.76757812 C-31.38254669 38.90998901 -31.38569885 38.0523999 -31.38894653 37.16882324 C-31.3869223 36.23654907 -31.38489807 35.3042749 -31.3828125 34.34375 C-31.38376923 33.39310669 -31.38472595 32.44246338 -31.38571167 31.4630127 C-31.38639357 29.44881118 -31.38453862 27.43460748 -31.38037109 25.42041016 C-31.37502298 22.32579645 -31.38031577 19.2313279 -31.38671875 16.13671875 C-31.38605797 14.18489551 -31.38477681 12.23307236 -31.3828125 10.28125 C-31.38483673 9.34897583 -31.38686096 8.41670166 -31.38894653 7.45617676 C-31.38579437 6.59858765 -31.38264221 5.74099854 -31.37939453 4.85742188 C-31.37859894 4.09876831 -31.37780334 3.34011475 -31.37698364 2.55847168 C-31.25 0.8125 -31.25 0.8125 -30.25 -0.1875 C-23.72457627 -0.42478814 -23.72457627 -0.42478814 -21.25 0.8125 C-20.625 2.875 -20.625 2.875 -20.25 4.8125 C-19.5075 4.19375 -18.765 3.575 -18 2.9375 C-12.17722164 -1.56191964 -7.01107661 -2.56173953 0 0 Z " fill="#8B7047" transform="translate(119.25,126.1875)"/>
<path d="M0 0 C0.8146875 0.00257812 1.629375 0.00515625 2.46875 0.0078125 C3.2834375 0.00523438 4.098125 0.00265625 4.9375 0 C6.96875 0.1328125 6.96875 0.1328125 7.96875 1.1328125 C8.04080511 2.81890216 8.05261068 4.50781909 8.03125 6.1953125 C8.02222656 7.11441406 8.01320312 8.03351563 8.00390625 8.98046875 C7.99230469 9.69074219 7.98070312 10.40101562 7.96875 11.1328125 C8.67902344 11.12121094 9.38929688 11.10960938 10.12109375 11.09765625 C11.04019531 11.08863281 11.95929688 11.07960938 12.90625 11.0703125 C13.82277344 11.05871094 14.73929688 11.04710938 15.68359375 11.03515625 C17.96875 11.1328125 17.96875 11.1328125 18.96875 12.1328125 C19.09375 15.6328125 19.09375 15.6328125 18.96875 19.1328125 C17.96875 20.1328125 17.96875 20.1328125 15.68359375 20.23046875 C14.30880859 20.21306641 14.30880859 20.21306641 12.90625 20.1953125 C11.98714844 20.18628906 11.06804687 20.17726562 10.12109375 20.16796875 C9.41082031 20.15636719 8.70054687 20.14476562 7.96875 20.1328125 C8.0785068 23.90425232 8.20916479 27.67468347 8.34375 31.4453125 C8.3746875 32.51716797 8.405625 33.58902344 8.4375 34.69335938 C8.47617188 35.72138672 8.51484375 36.74941406 8.5546875 37.80859375 C8.60181885 39.2303894 8.60181885 39.2303894 8.64990234 40.6809082 C8.8176551 43.3858394 8.8176551 43.3858394 10.96875 46.1328125 C12.94622122 46.49579186 12.94622122 46.49579186 15.09375 46.3203125 C16.3725 46.2584375 17.65125 46.1965625 18.96875 46.1328125 C18.96875 49.1028125 18.96875 52.0728125 18.96875 55.1328125 C14.38267458 57.49981917 10.01444609 57.71077405 4.96875 57.1328125 C1.43977705 55.75191004 0.29862518 54.68401781 -1.64575195 51.43505859 C-3.1700728 47.80193722 -3.37816831 45.34220958 -3.32421875 41.421875 C-3.31455078 40.17792969 -3.30488281 38.93398437 -3.29492188 37.65234375 C-3.26978516 36.36714844 -3.24464844 35.08195312 -3.21875 33.7578125 C-3.20521484 32.44941406 -3.19167969 31.14101562 -3.17773438 29.79296875 C-3.1424737 26.57249406 -3.09318633 23.35286644 -3.03125 20.1328125 C-4.000625 20.1534375 -4.97 20.1740625 -5.96875 20.1953125 C-9.03125 20.1328125 -9.03125 20.1328125 -10.03125 19.1328125 C-10.15625 15.6328125 -10.15625 15.6328125 -10.03125 12.1328125 C-9.03125 11.1328125 -9.03125 11.1328125 -5.96875 11.0703125 C-4.5146875 11.10125 -4.5146875 11.10125 -3.03125 11.1328125 C-3.04285156 10.42253906 -3.05445313 9.71226563 -3.06640625 8.98046875 C-3.07994141 7.60181641 -3.07994141 7.60181641 -3.09375 6.1953125 C-3.10535156 5.27878906 -3.11695313 4.36226563 -3.12890625 3.41796875 C-3.00402422 0.49572926 -2.91184986 0.19039018 0 0 Z " fill="#8C7047" transform="translate(195.03125,114.8671875)"/>
<path d="M0 0 C0.66 0.33 1.32 0.66 2 1 C2 4.63 2 8.26 2 12 C0.783125 11.896875 -0.43375 11.79375 -1.6875 11.6875 C-5.40270949 11.661151 -5.8711091 11.89304798 -8.9375 14.4375 C-9.618125 15.283125 -10.29875 16.12875 -11 17 C-11.33 17.33 -11.66 17.66 -12 18 C-12.15825258 19.99782126 -12.25119171 22.00088834 -12.31640625 24.00390625 C-12.35830078 25.21884766 -12.40019531 26.43378906 -12.44335938 27.68554688 C-12.48267578 28.96494141 -12.52199219 30.24433594 -12.5625 31.5625 C-12.60568359 32.84576172 -12.64886719 34.12902344 -12.69335938 35.45117188 C-12.799848 38.63399853 -12.90185962 41.81690674 -13 45 C-16.25303044 46.62651522 -19.39225602 46.11453156 -23 46 C-24.53084425 44.46915575 -24.12715779 43.08796856 -24.12939453 40.95507812 C-24.13254669 40.09748901 -24.13569885 39.2398999 -24.13894653 38.35632324 C-24.1369223 37.42404907 -24.13489807 36.4917749 -24.1328125 35.53125 C-24.13376923 34.58060669 -24.13472595 33.62996338 -24.13571167 32.6505127 C-24.13639357 30.63631118 -24.13453862 28.62210748 -24.13037109 26.60791016 C-24.12502298 23.51329645 -24.13031577 20.4188279 -24.13671875 17.32421875 C-24.13605797 15.37239551 -24.13477681 13.42057236 -24.1328125 11.46875 C-24.13483673 10.53647583 -24.13686096 9.60420166 -24.13894653 8.64367676 C-24.13579437 7.78608765 -24.13264221 6.92849854 -24.12939453 6.04492188 C-24.12859894 5.28626831 -24.12780334 4.52761475 -24.12698364 3.74597168 C-24 2 -24 2 -23 1 C-16.47457627 0.76271186 -16.47457627 0.76271186 -14 2 C-13.375 4.0625 -13.375 4.0625 -13 6 C-12.56429688 5.566875 -12.12859375 5.13375 -11.6796875 4.6875 C-7.82113141 1.0794995 -5.54766059 -0.90310754 0 0 Z " fill="#8C7047" transform="translate(294,125)"/>
<path d="M0 0 C0 6.93 0 13.86 0 21 C6.49211076 20.92092297 6.49211076 20.92092297 12.98388672 20.81982422 C13.79100098 20.8148291 14.59811523 20.80983398 15.4296875 20.8046875 C16.25710449 20.79421387 17.08452148 20.78374023 17.93701172 20.77294922 C20 21 20 21 22 23 C21.46428571 26.53571429 21.46428571 26.53571429 20 28 C18.5112814 28.08669432 17.018555 28.10703494 15.52734375 28.09765625 C14.71773193 28.09515869 13.90812012 28.09266113 13.07397461 28.09008789 C12.03893799 28.08098389 11.00390137 28.07187988 9.9375 28.0625 C6.658125 28.041875 3.37875 28.02125 0 28 C0 34.6 0 41.2 0 48 C-4 49 -4 49 -7 48 C-7 41.4 -7 34.8 -7 28 C-13.5370285 28.03958259 -13.5370285 28.03958259 -20.07397461 28.09008789 C-20.88358643 28.09258545 -21.69319824 28.09508301 -22.52734375 28.09765625 C-23.77632446 28.10551147 -23.77632446 28.10551147 -25.05053711 28.11352539 C-27 28 -27 28 -28 27 C-28.125 24.5 -28.125 24.5 -28 22 C-27 21 -27 21 -25.05053711 20.88647461 C-24.2178833 20.89171143 -23.38522949 20.89694824 -22.52734375 20.90234375 C-21.71773193 20.90484131 -20.90812012 20.90733887 -20.07397461 20.90991211 C-19.03893799 20.91901611 -18.00390137 20.92812012 -16.9375 20.9375 C-13.658125 20.958125 -10.37875 20.97875 -7 21 C-7 14.07 -7 7.14 -7 0 C-5 -1 -5 -1 0 0 Z " fill="#FFF7F5" transform="translate(404,380)"/>
<path d="M0 0 C2.91087711 1.74652627 4.53436606 3.24611647 6.3125 6.125 C8.01367446 13.23900229 7.639743 19.63044976 4 26 C1.45657646 28.92022703 -0.02851989 29.00407427 -3.9375 29.5625 C-6.39676282 29.47532464 -7.6202465 29.28760743 -9.59375 27.79296875 C-14.02730674 22.70211145 -14.29497922 17.94261123 -14.21875 11.47265625 C-13.83357799 7.11883697 -12.18511019 4.26976092 -9.25 1.125 C-5.95966302 -0.52016849 -3.62891507 -0.44565624 0 0 Z " fill="#FAEC87" transform="translate(162,134)"/>
<path d="M0 0 C2 2 2 2 2.1953125 4.3828125 C2.17210937 5.28773438 2.14890625 6.19265625 2.125 7.125 C2.10695313 8.03507813 2.08890625 8.94515625 2.0703125 9.8828125 C2.04710937 10.58148438 2.02390625 11.28015625 2 12 C-1.53855609 13.91831011 -3.93485192 14.43246256 -8 14 C-9.875 13 -9.875 13 -11 11 C-11.5336379 7.44241398 -11.62761708 4.25523417 -10 1 C-6.63044301 -0.68477849 -3.7359887 -0.29650704 0 0 Z " fill="#8E7349" transform="translate(413,157)"/>
<path d="M0 0 C2.9375 2.1875 2.9375 2.1875 5 5 C5 6.65 5 8.3 5 10 C-0.94 10 -6.88 10 -13 10 C-12 4 -12 4 -9.875 1.625 C-6.20040562 -0.45194465 -4.16245773 -0.66896642 0 0 Z " fill="#F8EA87" transform="translate(244,133)"/>
<path d="M0 0 C0.33 0 0.66 0 1 0 C1.10824843 1.6026782 1.18570645 3.20745748 1.25 4.8125 C1.29640625 5.70582031 1.3428125 6.59914063 1.390625 7.51953125 C1 10 1 10 -3 13 C-2.01 8.71 -1.02 4.42 0 0 Z " fill="#FEDA82" transform="translate(443,411)"/>
</svg>
